<svg width="71" height="66" viewBox="0 0 71 66" fill="none" xmlns="http://www.w3.org/2000/svg">
<path fill-rule="evenodd" clip-rule="evenodd" d="M34.1908 55.1201C34.612 55.376 35.0624 55.4892 35.5 55.4837C35.9376 55.4892 36.3879 55.376 36.8091 55.1201L40.5461 52.8495C47.8749 48.3965 56.8381 47.6692 64.7737 50.8836C67.7011 52.0694 70.8854 49.8862 70.8854 46.6934V7.8305C70.8854 5.90401 69.7272 4.1716 67.9608 3.45611C57.7399 -0.684003 46.1954 0.252738 36.7558 5.98813L35.5 6.7512L34.2441 5.98813C24.8046 0.252738 13.2601 -0.684003 3.03915 3.45611C1.2728 4.1716 0.114563 5.90401 0.114563 7.8305V46.6934C0.114563 49.8862 3.2989 52.0694 6.22625 50.8836C14.1618 47.6692 23.125 48.3965 30.4539 52.8495L34.1908 55.1201ZM5.05206 8.02659V45.9825C14.2549 42.4891 24.5446 43.4281 32.9942 48.562L33.0312 48.5845V11.0821L31.7038 10.2756C23.6425 5.37763 13.7958 4.54984 5.05206 8.02659ZM38.0057 48.562L37.9687 48.5845V11.0821L39.2962 10.2756C47.3574 5.37763 57.2041 4.54984 65.9479 8.02659V45.9825C56.7451 42.4891 46.4553 43.4281 38.0057 48.562Z" fill="black"/>
<path d="M26.5307 56.4741C19.8689 52.5388 11.6311 52.5389 4.96924 56.4741L4.63105 56.6739C3.45333 57.3696 3.05552 58.9004 3.74253 60.093C4.42953 61.2857 5.94119 61.6885 7.11891 60.9928L7.4571 60.793C12.5816 57.7659 18.9183 57.7659 24.0428 60.793L27.6217 62.9071C32.49 65.7829 38.5099 65.7829 43.3782 62.9071L46.9571 60.793C52.0816 57.7659 58.4183 57.7659 63.5428 60.793L63.881 60.9928C65.0588 61.6885 66.5704 61.2857 67.2574 60.093C67.9444 58.9004 67.5466 57.3696 66.3689 56.6739L66.0307 56.4741C59.3689 52.5389 51.1311 52.5388 44.4692 56.4741L40.8903 58.5882C37.5594 60.5559 33.4405 60.5559 30.1096 58.5882L26.5307 56.4741Z" fill="black"/>
</svg>
