<svg xmlns="http://www.w3.org/2000/svg" width="36" height="35" viewBox="0 0 36 35" fill="none">
  <path d="M26.3156 5.17821H8.23302C2.80826 5.17821 1 9.42822 1 12.792C1.02371 14.0541 1.3574 15.2984 1.98007 16.4466C2.06333 16.6067 2.20944 16.7378 2.39389 16.8179C2.57833 16.8979 2.78988 16.9222 2.99303 16.8865C3.19617 16.8507 3.37854 16.7573 3.50953 16.6217C3.64051 16.4862 3.71214 16.3168 3.71238 16.142V15.0853C3.71238 13.5625 4.61651 12.8011 8.23302 12.8011H26.3156V16.608C26.3156 17.0268 26.5886 17.1166 26.9231 16.806L34.7493 9.55765C34.9109 9.40152 35 9.20138 35 8.99423C35 8.78709 34.9109 8.58694 34.7493 8.43081L26.9231 1.1825C26.5886 0.877948 26.3156 0.9617 26.3156 1.38046V5.17821Z" stroke="black" stroke-width="2" stroke-linecap="round" stroke-linejoin="round"/>
  <path d="M9.68442 29.5565H27.767C33.1917 29.5565 35 25.3065 35 21.9427C34.9754 20.6832 34.6417 19.4415 34.0199 18.2957C33.9367 18.1356 33.7906 18.0046 33.6061 17.9245C33.4217 17.8444 33.2101 17.8202 33.007 17.8559C32.8038 17.8916 32.6215 17.9851 32.4905 18.1206C32.3595 18.2562 32.2879 18.4255 32.2876 18.6003V19.6555C32.2876 21.1783 31.3835 21.9397 27.767 21.9397H9.68442V18.1328C9.68442 17.714 9.41138 17.6257 9.07685 17.9348L1.25072 25.1831C1.08906 25.3393 1 25.5394 1 25.7466C1 25.9537 1.08906 26.1539 1.25072 26.31L9.07685 33.5583C9.41138 33.8629 9.68442 33.7791 9.68442 33.3603V29.5565Z" stroke="black" stroke-width="2" stroke-linecap="round" stroke-linejoin="round"/>
</svg>